<svg id="Capa_1" enable-background="new 0 0 510.024 510.024" height="512" viewBox="0 0 510.024 510.024" width="512" xmlns="http://www.w3.org/2000/svg"><g id="XMLID_147_"><path id="XMLID_2504_" d="m36.86 169.588c-11.756 46.601-8.86 98.572 12.307 146.393 4.158 9.394 8.928 18.421 14.264 27.075.567-20.098 4.345-40.229 11.09-59.197-9.53-18.678-14.508-39.306-14.508-60.502 0-73.521 59.814-133.333 133.334-133.333 21.794 0 42.772 5.159 61.666 15.058 18.895-9.898 39.872-15.058 61.667-15.058 73.521 0 133.333 59.813 133.333 133.333 0 21.196-4.978 41.824-14.508 60.502 6.746 18.967 10.522 39.098 11.091 59.196 5.335-8.654 10.105-17.681 14.263-27.074 12.71-28.715 19.154-59.317 19.154-90.958 0-18.945-2.331-37.531-6.848-55.435 22.487-13.319 36.848-37.784 36.848-64.565 0-41.355-33.645-75-75-75-16.296 0-32.068 5.367-44.95 15.002-79.2-59.684-189.97-60.384-270.101 0-12.882-9.635-28.654-15.001-44.95-15.001-41.355 0-75 33.645-75 75 0 26.78 14.359 51.245 36.848 64.564z"/><path id="XMLID_2509_" d="m416.679 348.357c0-23.096-4.991-46.055-14.501-66.969 11.558-17.036 17.834-37.3 17.834-58.031 0-56.978-46.355-103.334-103.333-103.334-22.477 0-43.928 7.166-61.667 20.406-17.739-13.24-39.19-20.406-61.666-20.406-56.979 0-103.334 46.355-103.334 103.334 0 20.731 6.276 40.995 17.834 58.031-9.51 20.914-14.5 43.873-14.5 66.969 0 89.144 72.522 161.667 161.666 161.667s161.667-72.524 161.667-161.667zm-251.667-138.333h30v30h-30zm120 225c-11.517 0-22.032-4.353-30-11.495-7.968 7.142-18.483 11.495-30 11.495-24.812 0-45-20.186-45-45h30c0 8.272 6.73 15 15 15 8.271 0 15-6.728 15-15v-23.787l-40.606-40.607 21.213-21.213 34.394 34.393 34.394-34.393 21.213 21.213-40.606 40.607v23.787c0 8.272 6.728 15 15 15 8.271 0 15-6.728 15-15h30c-.002 24.813-20.189 45-45.002 45zm60-195h-30v-30h30z"/></g></svg>