<svg id="Capa_1" enable-background="new 0 0 510 510" height="512" viewBox="0 0 510 510" width="512" xmlns="http://www.w3.org/2000/svg"><g><path d="m510 105c0-41.355-33.645-75-75-75-16.296 0-32.068 5.367-44.95 15.002-38.746-29.197-85.68-45.002-135.05-45.002s-96.304 15.805-135.05 45.002c-12.882-9.635-28.654-15.002-44.95-15.002-41.355 0-75 33.645-75 75 0 26.78 14.36 51.245 36.847 64.564-4.516 17.905-6.847 36.491-6.847 55.436 0 31.641 6.444 62.243 19.154 90.958 11.643 26.304 27.984 49.806 48.593 69.935 16.979 71.089 81.037 124.107 157.253 124.107s140.274-53.018 157.252-124.107c20.609-20.129 36.951-43.631 48.593-69.935 12.711-28.715 19.155-59.317 19.155-90.958 0-18.945-2.331-37.531-6.847-55.436 22.487-13.319 36.847-37.784 36.847-64.564zm-480 0c0-24.813 20.187-45 45-45 7.53 0 14.881 1.904 21.393 5.421-.163.162-.33.318-.492.48-21.521 21.522-38.136 46.639-49.304 73.993-10.282-8.397-16.597-21.137-16.597-34.894zm225 375c-68.058 0-124.221-51.904-130.984-118.207-.454-4.467-.683-8.964-.683-13.46 0-1.341.021-2.681.062-4.019.616-20.082 5.841-39.9 15.204-57.558l4.708-8.88-6.421-7.732c-10.889-13.11-16.886-29.735-16.886-46.811 0-40.436 32.898-73.333 73.333-73.333 19.237 0 37.418 7.399 51.193 20.835l10.474 10.215 10.474-10.215c13.775-13.436 31.956-20.835 51.193-20.835 40.436 0 73.333 32.897 73.333 73.333 0 17.075-5.997 33.7-16.887 46.813l-6.42 7.732 4.708 8.879c9.362 17.658 14.587 37.476 15.204 57.558.041 1.339.062 2.679.062 4.019 0 4.497-.229 8.994-.683 13.46-6.763 66.302-62.926 118.206-130.984 118.206zm-161.114-144.991c-22.057-32.08-33.886-69.983-33.886-110.009 0-107.523 87.477-195 195-195s195 87.477 195 195c0 40.026-11.829 77.929-33.886 110.009.057-7.448-.641-17.595-3.81-29.139-2.811-10.24-6.713-18.474-10.138-24.505 11.558-17.036 17.834-37.3 17.834-58.031 0-56.979-46.355-103.334-103.333-103.334-22.477 0-43.928 7.166-61.667 20.406-17.739-13.24-39.19-20.406-61.667-20.406-56.978 0-103.333 46.355-103.333 103.333 0 18.141 4.805 35.923 13.749 51.497 1.278 2.225 2.64 4.405 4.085 6.534-3.012 6.686-6.053 14.623-8.573 23.722-3.103 11.208-4.644 21.388-5.375 29.923zm369.517-195.115c-11.168-27.354-27.783-52.471-49.305-73.992-.162-.162-.329-.318-.492-.48 6.513-3.518 13.863-5.422 21.394-5.422 24.814 0 45 20.187 45 45 0 13.757-6.315 26.497-16.597 34.894z"/><path d="m315 210h30v30h-30z"/><path d="m165 210h30v30h-30z"/><path d="m285 405c-8.272 0-15-6.728-15-15v-23.787l40.606-40.606-21.213-21.213-34.393 34.393-34.394-34.394-21.213 21.213 40.607 40.607v23.787c0 8.272-6.729 15-15 15s-15-6.728-15-15h-30c0 24.814 20.186 45 45 45 11.517 0 22.033-4.353 30-11.495 7.967 7.141 18.483 11.495 30 11.495 24.814 0 45-20.186 45-45h-30c0 8.272-6.728 15-15 15z"/></g></svg>