<svg id="Capa_1" enable-background="new 0 0 510.049 510.049" height="512" viewBox="0 0 510.049 510.049" width="512" xmlns="http://www.w3.org/2000/svg"><g id="XMLID_3891_"><path id="XMLID_4040_" d="m161.327 375.081c-107.56 0-70.855-.032-78.803-.032-11.018-14.689-34.076-45.435-40.5-54-8.394 6.296-15.606 11.705-24 18 8.988 11.985 18.011 24.015 27 36h-45v30h65.729c-5.246 10.492-9.754 19.508-15 30-16.116 0-34.613 0-50.729 0v30h69.271c8.131-16.261 25.212-50.424 30-60h35.729v105h15c41.354 0 75-33.643 75-75 0-15.159 0-46.661 0-73.216-19.687 8.886-40.67 13.248-63.692 13.248-.002 0-.003 0-.005 0z"/><path id="XMLID_4043_" d="m285.012 194.777c-86.502-5.825-133.55-103.097-86.247-174.337-38.239 23.862-63.74 66.31-63.74 114.609v120c15.27 0 31.55 2.06 46.805-13.195 8.148-8.147 13.195-19.397 13.195-31.805h30c0 20.678-8.411 39.428-21.992 53.009-24.249 24.249-50.262 21.991-68.008 21.991v60h14c5.857-1.009 39.014 4.948 76-16.969 36.545-21.655 60-61.125 60-105.031 0-11.48-.008-20.701-.013-28.272z"/><path id="XMLID_4078_" d="m307.525 163.658c38.607-7.125 67.5-41 67.5-81.108 0-9.925 0-72.12 0-82.5-18.362 0-56.794 0-67.5 0-18.475 0-49.546-2.462-76.407 27.47-13.108 14.608-21.093 33.903-21.093 55.03 0 51.336 46.702 90.482 97.5 81.108zm-30-96.109h30v30c-10.285 0-19.715 0-30 0 0-10.285 0-19.715 0-30z"/><path id="XMLID_4079_" d="m510.025 314.049c0-4.897 0-9.104 0-14-10.143 0-18.857 0-29 0-33.689 0-61 27.31-61 61v14c-37.471 0-75.347 0-94.919 0l-.017.005c12.732-10.323 23.556-22.914 31.832-37.163 11.509-19.815 18.104-42.822 18.104-67.342 0-5.906 0-62.053 0-111.546-15.565 16.799-36.289 28.905-60.014 33.736.004 8.568.014 16.63.014 30.31 0 26.616-7.025 52.85-20.317 75.863-10.104 17.495-23.652 32.815-39.683 45.038 0 1.882 0 61.423 0 61.099h90v14c0 33.689 27.31 61 61 61h29v-7c-.507-2.902 3.638-28.629-17.866-50.134-11.039-11.039-26.289-17.866-43.134-17.866h136c0-10.492 0-19.508 0-30-13.608 0-36.029 0-61 0 33.688 0 61-27.309 61-61z"/><path id="XMLID_4080_" d="m420.025.049c-4.994 0-9.998 0-15 0v60h88.49c-6.968-34.19-37.27-60-73.49-60z"/><path id="XMLID_4081_" d="m448.515 90.049h-43.766c-1.465 22.093-9.338 42.631-21.941 59.583 32.708-3.39 59.245-27.872 65.707-59.583z"/></g></svg>