<svg id="Capa_1" enable-background="new 0 0 510 510" height="512" viewBox="0 0 510 510" width="512" xmlns="http://www.w3.org/2000/svg"><g><path d="m277.5 67.25h30v30h-30z"/><path d="m510 299.75h-44c-41.57 0-75.435 33.555-75.975 75-15.691 0-49.338 0-64.953 0 30.436-24.68 49.928-62.353 49.928-104.5v-120c36.22 0 66.522-25.808 73.49-60h46.51v-15c0-41.355-33.645-75-75-75h-150c-74.439 0-135 60.561-135 135v239.5h-52.5l-40.5-54-24 18 27 36h-45v30h65.729l-15 30h-50.729v30h69.271l29.999-60h35.73v105h15c41.355 0 75-33.645 75-75v-30h105.025c.539 41.445 34.404 75 75.975 75h44v-29c0-17.278-5.807-33.22-15.557-46h75.557v-30h-15.557c9.75-12.78 15.557-28.722 15.557-46zm-270-217.5c0-26.521 19.772-48.499 45.348-52h59.652v52c0 28.948-23.552 52.5-52.5 52.5s-52.5-23.552-52.5-52.5zm135 38v-30h42.43c-6.191 17.461-22.873 30-42.43 30zm45-90c19.557 0 36.239 12.539 42.43 30h-12.43-75v-30zm-200.023 12.7c-6.36 11.69-9.977 25.081-9.977 39.3 0 31.99 18.315 59.767 45 73.447v67.053c0 50.06-40.191 90.91-90 91.978v-31.488c34.191-6.968 60-37.271 60-73.49h-30c0 19.555-12.541 36.227-30 42.42v-116.92c0-39.799 22.257-74.496 54.977-92.3zm-54.977 434.23v-132.455c10.362-.168 20.414-1.633 30-4.241v94.267c0 19.556-12.539 36.238-30 42.429zm60-102.43v-46.969c35.885-21.264 60-60.381 60-105.031v-58.356c2.473.224 4.971.356 7.5.356 19.927 0 38.226-7.102 52.5-18.908v4.408 120c0 57.621-46.879 104.5-104.5 104.5zm181 75c-25.03 0-45.455-20.096-45.989-45h13.989c25.03 0 45.455 20.096 45.989 45zm14.011-75c.534-24.904 20.959-45 45.989-45h13.989c-.534 24.904-20.959 45-45.989 45z"/></g></svg>